# xmcd
#
# Track frame offsets:
#	150
#	15015
#	28396
#	44392
#	62743
#	78986
#	96527
#	105345
#	121079
#	139756
#	157313
#	175079
#	194690
#	211779
#	226459
#	242597
#	253893
#
# Disc length: 3574 seconds
#
# Revision: 0
# Processed by: cddbd v1.5.2PL0 Copyright (c) Steve Scherf et al.
# Submitted via: EasyCDDAExtractor 11.1.0.1
#
DISCID=e60df411
DTITLE=Reijo Mäki - Uhkapelimerkki CD01
DYEAR=1900
DGENRE=
TTITLE0=CD01.01
TTITLE1=CD01.02
TTITLE2=CD01.03
TTITLE3=CD01.04
TTITLE4=CD01.05
TTITLE5=CD01.06
TTITLE6=CD01.07
TTITLE7=CD01.08
TTITLE8=CD01.09
TTITLE9=CD01.10
TTITLE10=CD01.11
TTITLE11=CD01.12
TTITLE12=CD01.13
TTITLE13=CD01.14
TTITLE14=CD01.15
TTITLE15=CD01.16
TTITLE16=CD01.17
EXTD=
EXTT0=
EXTT1=
EXTT2=
EXTT3=
EXTT4=
EXTT5=
EXTT6=
EXTT7=
EXTT8=
EXTT9=
EXTT10=
EXTT11=
EXTT12=
EXTT13=
EXTT14=
EXTT15=
EXTT16=
PLAYORDER=
